<?xml version="1.0" encoding="UTF-8" standalone="no"?><!-- Generator: Gravit.io --><svg xmlns="http://www.w3.org/2000/svg" xmlns:xlink="http://www.w3.org/1999/xlink" style="isolation:isolate" viewBox="5 -2 314 251" width="314pt" height="251pt"><g><defs><filter id="FSiRj4EGTIhyKrnxiPUO7KuxA6ITmcFg" x="-200%" y="-200%" width="400%" height="400%" filterUnits="objectBoundingBox" color-interpolation-filters="sRGB"><feGaussianBlur xmlns="http://www.w3.org/2000/svg" in="SourceGraphic" stdDeviation="2.146804531419514"/><feOffset xmlns="http://www.w3.org/2000/svg" dx="2" dy="2" result="pf_100_offsetBlur"/><feFlood xmlns="http://www.w3.org/2000/svg" flood-color="#000000" flood-opacity="0.65"/><feComposite xmlns="http://www.w3.org/2000/svg" in2="pf_100_offsetBlur" operator="in" result="pf_100_dropShadow"/><feBlend xmlns="http://www.w3.org/2000/svg" in="SourceGraphic" in2="pf_100_dropShadow" mode="normal"/></filter></defs><g filter="url(#FSiRj4EGTIhyKrnxiPUO7KuxA6ITmcFg)"><path d=" M 179.75 45 L 187.466 45 C 191.188 45 194.21 41.978 194.21 38.256 L 194.21 9.744 C 194.21 6.022 191.188 3 187.466 3 L 131.744 3 C 128.022 3 125 6.022 125 9.744 L 125 38.256 C 125 41.978 128.022 45 131.744 45 L 139.46 45 C 136.595 45 134.268 42.673 134.268 39.808 L 134.268 16.192 C 134.268 13.327 136.595 11 139.46 11 L 179.75 11 C 182.615 11 184.942 13.327 184.942 16.192 L 184.942 39.808 C 184.942 42.673 182.615 45 179.75 45 Z " fill-rule="evenodd" fill="rgb(9,151,73)"/></g><defs><filter id="TKFIlubkFwcMMqDtltWE8h8fTwzbJzua" x="-200%" y="-200%" width="400%" height="400%" filterUnits="objectBoundingBox" color-interpolation-filters="sRGB"><feGaussianBlur xmlns="http://www.w3.org/2000/svg" in="SourceGraphic" stdDeviation="2.146804531419514"/><feOffset xmlns="http://www.w3.org/2000/svg" dx="2" dy="2" result="pf_100_offsetBlur"/><feFlood xmlns="http://www.w3.org/2000/svg" flood-color="#000000" flood-opacity="0.65"/><feComposite xmlns="http://www.w3.org/2000/svg" in2="pf_100_offsetBlur" operator="in" result="pf_100_dropShadow"/><feBlend xmlns="http://www.w3.org/2000/svg" in="SourceGraphic" in2="pf_100_dropShadow" mode="normal"/></filter></defs><g filter="url(#TKFIlubkFwcMMqDtltWE8h8fTwzbJzua)"><path d=" M 24.585 10.213 L 75 10.95 L 75 28.485 L 245 27.535 L 245 10 L 295.414 10 C 303.464 10 310 16.536 310 24.586 L 310 225.414 C 310 233.464 303.464 240 295.414 240 L 24.586 240 C 16.536 240 10 233.464 10 225.414 L 10 24.586 C 10 16.536 16.535 10.096 24.585 10.213 Z " fill-rule="evenodd" fill="rgb(9,151,73)"/></g><path d=" M 139.09 76.14 L 139.81 78.84 L 139.81 78.84 Q 146.29 74.7 156.82 74.7 L 156.82 74.7 L 156.82 74.7 Q 167.35 74.7 174.91 77.94 L 174.91 77.94 L 174.91 77.94 Q 190.21 84.96 190.21 104.04 L 190.21 104.04 L 190.21 204.12 L 174.01 199.8 L 174.01 104.58 L 174.01 104.58 Q 174.01 96.66 169.06 92.97 L 169.06 92.97 L 169.06 92.97 Q 164.11 89.28 156.55 89.28 L 156.55 89.28 L 156.55 89.28 Q 148.99 89.28 139.99 94.32 L 139.99 94.32 L 139.99 166.32 L 123.79 166.32 L 123.79 76.14 L 139.09 76.14 Z " fill="rgb(255,255,255)"/><path d=" M 295 193.06 L 295 193.06 L 287.08 204.04 L 287.08 204.04 Q 286.9 204.04 286.72 204.04 L 286.72 204.04 L 286.72 204.04 Q 272.14 204.04 263.32 186.76 L 263.32 186.76 L 244.96 149.32 L 217.78 202.6 L 203.2 196.3 L 236.5 131.86 L 208.6 75.7 L 226.42 75.7 L 245.32 114.76 L 265.3 75.7 L 283.84 75.7 L 253.6 132.22 L 276.28 178.84 L 276.28 178.84 Q 282.04 191.98 295 193.06 Z " fill="rgb(255,255,255)"/><path d=" M 74.05 191.03 L 74.05 208.37 L 60.4 208.37 L 60.4 190.866 L 60.4 190.866 Q 47.05 189.067 39.55 180.151 L 39.55 180.151 L 39.55 180.151 Q 32.05 171.236 31.75 160.602 L 31.75 160.602 L 46.3 158.803 L 46.3 158.803 Q 46.75 164.856 50.5 169.6 L 50.5 169.6 L 50.5 169.6 Q 54.25 174.344 60.4 175.816 L 60.4 175.816 L 60.4 132.138 L 60.4 132.138 Q 40.6 123.632 36.25 113.162 L 36.25 113.162 L 36.25 113.162 Q 34.3 108.254 34.3 101.875 L 34.3 101.875 L 34.3 101.875 Q 34.3 92.059 41.05 84.207 L 41.05 84.207 L 41.05 84.207 Q 47.8 76.355 60.4 74.228 L 60.4 74.228 L 60.4 56.07 L 74.05 56.07 L 74.05 73.901 L 74.05 73.901 Q 82.3 74.555 90.1 78.482 L 90.1 78.482 L 89.35 80.772 L 89.35 80.772 Q 88.75 82.898 87.625 86.497 L 87.625 86.497 L 87.625 86.497 Q 86.5 90.096 85.75 92.55 L 85.75 92.55 L 85.75 92.55 Q 79.9 90.096 74.05 89.115 L 74.05 89.115 L 74.05 122.159 L 74.05 122.159 Q 86.05 127.721 93.55 134.756 L 93.55 134.756 L 93.55 134.756 Q 103 143.262 103 157.331 L 103 157.331 L 103 157.331 Q 103 171.399 95.875 180.315 L 95.875 180.315 L 95.875 180.315 Q 88.75 189.23 74.05 191.03 L 74.05 191.03 Z  M 74.05 139.009 L 74.05 139.009 L 74.05 175.98 L 74.05 175.98 Q 80.5 174.344 84.25 169.927 L 84.25 169.927 L 84.25 169.927 Q 88 165.51 88 158.885 L 88 158.885 L 88 158.885 Q 88 152.259 84.325 147.515 L 84.325 147.515 L 84.325 147.515 Q 80.65 142.771 74.05 139.009 Z  M 60.4 115.616 L 60.4 115.616 L 60.4 89.605 L 60.4 89.605 Q 48.55 92.714 49 103.02 L 49 103.02 L 49 103.02 Q 49.15 110.217 60.4 115.616 Z " fill="rgb(255,255,255)"/><rect x="185.337" y="22" width="8.873" height="34" transform="matrix(1,0,0,1,0,0)" fill="rgb(9,151,73)"/><rect x="125" y="19" width="9.268" height="34" transform="matrix(1,0,0,1,0,0)" fill="rgb(9,151,73)"/></g></svg>