<?xml version="1.0" encoding="UTF-8" standalone="no"?><!-- Generator: Gravit.io --><svg xmlns="http://www.w3.org/2000/svg" xmlns:xlink="http://www.w3.org/1999/xlink" style="isolation:isolate" viewBox="179.495 90.112 77.009 29.888" width="77.009pt" height="29.888pt"><g><path d=" M 181.757 96.634 L 181.757 97.453 L 181.757 97.453 Q 183.199 96.371 185.82 96.371 L 185.82 96.371 L 185.82 96.371 Q 187.525 96.371 188.803 96.961 L 188.803 96.961 L 188.803 96.961 Q 191.588 98.239 191.588 101.713 L 191.588 101.713 L 191.588 119.934 L 189.262 119.148 L 189.262 101.812 L 189.262 101.812 Q 189.262 99.944 188.098 99.206 L 188.098 99.206 L 188.098 99.206 Q 186.935 98.469 185.345 98.469 L 185.345 98.469 L 185.345 98.469 Q 183.756 98.469 181.855 99.518 L 181.855 99.518 L 181.855 113.052 L 179.495 113.052 L 179.495 96.634 L 181.757 96.634 Z " fill="rgb(0,0,0)"/><path d=" M 194.505 108.89 L 194.505 108.89 L 196.799 108.792 L 196.799 108.792 Q 196.93 110.005 198.012 110.676 L 198.012 110.676 L 198.012 110.676 Q 199.093 111.348 200.502 111.348 L 200.502 111.348 L 200.502 111.348 Q 201.911 111.348 202.944 110.709 L 202.944 110.709 L 202.944 110.709 Q 203.976 110.07 203.976 108.874 L 203.976 108.874 L 203.976 108.874 Q 203.976 107.678 203.091 106.973 L 203.091 106.973 L 203.091 106.973 Q 202.206 106.269 200.928 105.859 L 200.928 105.859 L 200.928 105.859 Q 199.65 105.449 198.356 104.99 L 198.356 104.99 L 198.356 104.99 Q 197.061 104.532 196.078 103.548 L 196.078 103.548 L 196.078 103.548 Q 194.866 102.401 194.866 100.746 L 194.866 100.746 L 194.866 100.746 Q 194.866 99.092 196.193 97.666 L 196.193 97.666 L 196.193 97.666 Q 197.52 96.24 200.502 96.24 L 200.502 96.24 L 200.502 96.24 Q 201.551 96.24 202.469 96.486 L 202.469 96.486 L 202.469 96.486 Q 203.386 96.732 203.78 96.961 L 203.78 96.961 L 204.173 97.191 L 203.419 99.255 L 203.419 99.255 Q 202.37 98.436 200.666 98.436 L 200.666 98.436 L 200.666 98.436 Q 198.962 98.436 198.126 99.075 L 198.126 99.075 L 198.126 99.075 Q 197.291 99.714 197.291 100.697 L 197.291 100.697 L 197.291 100.697 Q 197.291 101.779 198.339 102.401 L 198.339 102.401 L 198.339 102.401 Q 199.388 103.024 200.699 103.45 L 200.699 103.45 L 200.699 103.45 Q 202.01 103.876 203.304 104.401 L 203.304 104.401 L 203.304 104.401 Q 204.599 104.925 205.5 106.039 L 205.5 106.039 L 205.5 106.039 Q 206.401 107.153 206.401 108.989 L 206.401 108.989 L 206.401 108.989 Q 206.401 110.824 204.927 112.184 L 204.927 112.184 L 204.927 112.184 Q 203.452 113.544 200.617 113.544 L 200.617 113.544 L 200.617 113.544 Q 197.782 113.544 196.176 112.2 L 196.176 112.2 L 196.176 112.2 Q 194.571 110.857 194.505 108.89 Z " fill="rgb(0,0,0)"/><path d=" M 211.896 90.112 L 211.896 97.256 L 211.896 97.256 Q 213.436 96.371 215.403 96.371 L 215.403 96.371 L 215.403 96.371 Q 217.369 96.371 218.844 96.994 L 218.844 96.994 L 218.844 96.994 Q 221.629 98.272 221.629 101.713 L 221.629 101.713 L 221.629 107.907 L 221.629 107.907 Q 221.629 111.152 219.073 112.462 L 219.073 112.462 L 219.073 112.462 Q 217.14 113.446 214.747 113.446 L 214.747 113.446 L 214.747 113.446 Q 212.355 113.446 209.536 113.052 L 209.536 113.052 L 209.536 90.112 L 211.896 90.112 Z  M 219.302 107.94 L 219.302 107.94 L 219.302 102.074 L 219.302 102.074 Q 219.302 100.501 218.45 99.616 L 218.45 99.616 L 218.45 99.616 Q 217.5 98.6 215.632 98.6 L 215.632 98.6 L 213.993 98.764 L 213.993 98.764 Q 212.781 99.026 211.896 99.55 L 211.896 99.55 L 211.896 111.02 L 211.896 111.02 Q 213.535 111.25 214.37 111.25 L 214.37 111.25 L 214.37 111.25 Q 215.206 111.25 215.304 111.217 L 215.304 111.217 L 215.304 111.217 Q 216.943 111.217 218.123 110.365 L 218.123 110.365 L 218.123 110.365 Q 219.302 109.513 219.302 107.94 Z " fill-rule="evenodd" fill="rgb(0,0,0)"/><path d=" M 238.146 102.696 L 238.146 102.696 L 238.146 107.022 L 238.146 107.022 Q 238.146 109.775 236.639 111.578 L 236.639 111.578 L 236.639 111.578 Q 235.131 113.38 232.084 113.38 L 232.084 113.38 L 232.084 113.38 Q 229.036 113.38 227.479 111.561 L 227.479 111.561 L 227.479 111.561 Q 225.922 109.742 225.922 107.022 L 225.922 107.022 L 225.922 102.696 L 225.922 102.696 Q 225.922 99.583 227.512 97.928 L 227.512 97.928 L 227.512 97.928 Q 229.101 96.273 232.018 96.273 L 232.018 96.273 L 232.018 96.273 Q 234.935 96.273 236.54 97.994 L 236.54 97.994 L 236.54 97.994 Q 238.146 99.714 238.146 102.696 Z  M 235.787 107.35 L 235.787 107.35 L 235.787 102.696 L 235.787 102.696 Q 235.787 98.534 232.084 98.534 L 232.084 98.534 L 232.084 98.534 Q 228.282 98.534 228.282 102.696 L 228.282 102.696 L 228.282 107.35 L 228.282 107.35 Q 228.282 109.12 229.314 110.152 L 229.314 110.152 L 229.314 110.152 Q 230.347 111.184 232.084 111.184 L 232.084 111.184 L 232.084 111.184 Q 233.82 111.184 234.804 110.152 L 234.804 110.152 L 234.804 110.152 Q 235.787 109.12 235.787 107.35 Z " fill-rule="evenodd" fill="rgb(0,0,0)"/><path d=" M 256.505 118.361 L 256.505 118.361 L 255.357 120 L 255.357 120 Q 255.325 120 255.292 120 L 255.292 120 L 255.292 120 Q 252.637 120 251.032 116.854 L 251.032 116.854 L 247.689 110.037 L 242.74 119.738 L 240.577 118.853 L 246.411 107.448 L 241.102 96.634 L 243.723 96.634 L 247.722 104.925 L 251.982 96.634 L 254.637 96.634 L 248.967 107.514 L 252.998 115.838 L 252.998 115.838 Q 253.457 116.854 254.112 117.427 L 254.112 117.427 L 254.112 117.427 Q 254.768 118.001 255.128 118.099 L 255.128 118.099 L 255.128 118.099 Q 255.947 118.361 256.505 118.361 Z " fill="rgb(0,0,0)"/></g></svg>